<svg width="39" height="18" xmlns="http://www.w3.org/2000/svg"><defs><linearGradient x1="58.184%" y1="0%" x2="58.184%" y2="120.161%" id="a"><stop stop-color="#595F70" offset="0%"/><stop stop-color="#2D313D" offset="100%"/></linearGradient></defs><g fill="none" fill-rule="evenodd"><path d="M2.59 0h36v18H0a6.661 6.661 0 002.59-5.272V0z" fill="url(#a)"/><path d="M9.706 14.164c1.668-.72 2.868-1.74 3.612-3.036.408-.768.708-1.668.9-2.712h.972v4.368c0 .816.384 1.224 1.176 1.224h1.944c.504 0 .864-.108 1.092-.324.264-.264.444-.972.54-2.148l-.816-.264c-.06.936-.168 1.488-.336 1.68-.132.156-.348.24-.636.24H16.63c-.384 0-.576-.204-.576-.588V8.416h3.72v-.828H14.35c.084-.648.132-1.356.156-2.1v-.804h4.296v-.84h-8.616v.84h3.444v.804c-.012.744-.06 1.452-.156 2.1H9.382v.828h3.948c-.156.756-.372 1.44-.66 2.04-.648 1.224-1.788 2.196-3.444 2.94l.48.768zm13.896 0V3.22h-.84v10.944h.84zm1.764.06c1.632-1.584 2.532-3.996 2.724-7.26h.768v6.048c0 .66.3.996.9.996h1.26a.812.812 0 00.66-.348c.156-.264.276-1.044.348-2.316l-.78-.252c-.024 1.104-.084 1.74-.168 1.92-.072.132-.156.204-.264.204h-.828c-.204 0-.3-.12-.3-.36V6.964h2.04v-.84h-3.6V3.22h-.84v2.904H25.39v.84h1.86c-.168 3.024-1.008 5.256-2.52 6.696l.636.564zm5.292-8.64l.588-.588a11.289 11.289 0 00-1.68-1.572l-.564.54c.696.564 1.248 1.104 1.656 1.62zm-6.036 2.592l.684-.192c-.24-1.02-.504-1.932-.816-2.724l-.624.204c.312.864.564 1.776.756 2.712zm-2.94.756c.324-1.056.504-2.172.552-3.348l-.684-.048a11.212 11.212 0 01-.564 3.204l.696.192z" fill="#F0E1B1" fill-rule="nonzero"/></g></svg>